<svg width="30" height="30" viewBox="0 0 37 37" fill="none" xmlns="http://www.w3.org/2000/svg">
<path d="M18.4821 3.46542C12.7424 3.46542 8.08569 7.8976 8.08569 13.3564C8.08569 19.6376 15.0166 29.5914 17.5616 33.0294C17.6672 33.1745 17.8057 33.2926 17.9656 33.3741C18.1256 33.4555 18.3026 33.4979 18.4821 33.4979C18.6616 33.4979 18.8385 33.4555 18.9985 33.3741C19.1585 33.2926 19.2969 33.1745 19.4026 33.0294C21.9475 29.5928 28.8785 19.6426 28.8785 13.3564C28.8785 7.8976 24.2217 3.46542 18.4821 3.46542Z" stroke="#4F63BE" stroke-width="1.84825" stroke-linecap="round" stroke-linejoin="round"/>
<path d="M18.4822 17.3273C20.3961 17.3273 21.9476 15.7757 21.9476 13.8618C21.9476 11.9479 20.3961 10.3963 18.4822 10.3963C16.5683 10.3963 15.0167 11.9479 15.0167 13.8618C15.0167 15.7757 16.5683 17.3273 18.4822 17.3273Z" stroke="#4F63BE" stroke-width="1.84825" stroke-linecap="round" stroke-linejoin="round"/>
</svg>
